<?xml version="1.0" encoding="UTF-8"?>
<svg xmlns="http://www.w3.org/2000/svg" id="b" data-name="Calque 2" viewBox="0 0 487.19 93.37">
  <g id="c" data-name="Calque 1">
    <rect width="487.19" height="93.37" fill="#206fb6"></rect>
    <g>
      <path d="M170.36,53.71c0,5.16-5.14,8.15-10.48,8.15-5.02,0-10.2-2.68-11.27-8.62h5.66c.48,3.07,3.31,4.61,5.9,4.61s4.82-1.38,4.82-4.14c0-5.28-15.46-1.93-15.46-11.66,0-5.08,4.78-7.99,9.72-7.99,4.66,0,9.4,2.56,10.48,8.35h-5.7c-.44-2.84-2.87-4.29-5.14-4.29-2.07,0-3.98,1.22-3.98,3.7,0,5.63,15.46,2.6,15.46,11.89h0Z" fill="#fff"></path>
      <path d="M188.49,57.18c4.34,0,8.68-3.07,8.68-9.21s-4.34-9.22-8.68-9.22-8.68,3.07-8.68,9.22,4.34,9.21,8.68,9.21M188.49,33.83c7.05,0,14.06,4.72,14.06,14.14s-7.01,14.09-14.06,14.09-14.06-4.72-14.06-14.09,7.05-14.14,14.06-14.14" fill="#fff"></path>
      <path d="M244.46,51.35l-3.23-8.15-3.27,8.15h6.49ZM254.39,61.71h-5.78l-2.31-5.75h-10.16l-2.31,5.75h-5.78l11.11-26.54c.36-.91,1.2-1.38,2.03-1.38s1.71.47,2.07,1.38l11.11,26.54h0Z" fill="#fff"></path>
      <path d="M316.5,53.71c0,5.16-5.14,8.15-10.48,8.15-5.02,0-10.2-2.68-11.27-8.62h5.66c.48,3.07,3.31,4.61,5.9,4.61s4.82-1.38,4.82-4.14c0-5.28-15.46-1.93-15.46-11.66,0-5.08,4.78-7.99,9.72-7.99,4.66,0,9.4,2.56,10.48,8.35h-5.7c-.44-2.84-2.87-4.29-5.14-4.29-2.07,0-3.98,1.22-3.98,3.7,0,5.63,15.46,2.6,15.46,11.89h0Z" fill="#fff"></path>
      <path d="M103.6,61.71h-2.92v-25.37c0-1.19.98-2.16,2.19-2.16h3.15v25.36c0,1.2-.98,2.16-2.19,2.16h-.23Z" fill="#fff"></path>
      <path d="M141.14,61.71h-2.92v-25.37c0-1.19.98-2.16,2.19-2.16h3.15v25.36c0,1.2-.98,2.16-2.19,2.16h-.23Z" fill="#fff"></path>
      <path d="M287.27,61.71h-2.92v-25.37c0-1.19.98-2.16,2.19-2.16h3.15v25.36c0,1.2-.98,2.16-2.19,2.16h-.23Z" fill="#fff"></path>
      <path d="M112.39,36.34c0-1.19.98-2.16,2.19-2.16h8.85c10.48.04,11.11,13.63,2.27,15.79l7.97,11.74h-6.45l-7.37-10.87c-.28-.39-.44-.87-.44-1.3,0-1.14.84-2.13,1.91-2.32,3.39-.67,5.1-2.99,5.1-5,0-1.85-1.16-3.43-3.39-3.43h-5.3v20.76c0,1.2-.97,2.16-2.18,2.16h-3.16v-25.37h0Z" fill="#fff"></path>
      <path d="M258.61,36.34c0-1.19.98-2.16,2.19-2.16h8.85c10.48.04,11.11,13.63,2.27,15.79l7.97,11.74h-6.45l-7.37-10.87c-.28-.39-.44-.87-.44-1.3,0-1.14.84-2.13,1.91-2.32,3.39-.67,5.1-2.99,5.1-5,0-1.85-1.16-3.43-3.39-3.43h-5.3v20.76c0,1.2-.97,2.16-2.18,2.16h-3.16v-25.37h0Z" fill="#fff"></path>
      <path d="M207.77,61.71v-25.37c0-1.19.98-2.16,2.19-2.16h3.15v22.92h12.99v2.45c0,1.2-.98,2.16-2.19,2.16h-16.14Z" fill="#fff"></path>
      <path d="M355.79,53.36c0,5.27-5.25,8.32-10.7,8.32-5.13,0-10.42-2.73-11.51-8.81h5.78c.49,3.14,3.38,4.7,6.02,4.7s4.92-1.41,4.92-4.23c0-5.39-15.79-1.97-15.79-11.9,0-5.19,4.88-8.16,9.93-8.16,4.76,0,9.6,2.61,10.7,8.53h-5.82c-.45-2.9-2.93-4.39-5.25-4.39-2.11,0-4.07,1.25-4.07,3.78,0,5.75,15.79,2.65,15.79,12.15h0Z" fill="#fff"></path>
      <path d="M375.3,38.15h-4.5v21.18c0,1.21-.98,2.2-2.19,2.2h-3.15v-23.37h-7.51v-2.51c0-1.21.98-2.2,2.2-2.2h18.16v2.5c0,1.21-.98,2.2-2.2,2.2h-.81Z" fill="#fff"></path>
      <path d="M394.82,56.92c4.44,0,8.87-3.14,8.87-9.41s-4.44-9.41-8.87-9.41-8.87,3.14-8.87,9.41,4.44,9.41,8.87,9.41M394.82,33.07c7.2,0,14.36,4.82,14.36,14.44s-7.16,14.39-14.36,14.39-14.36-4.82-14.36-14.39,7.2-14.44,14.36-14.44" fill="#fff"></path>
      <path d="M412.16,35.66c0-1.22,1-2.21,2.23-2.21h9.04c10.7.04,11.35,13.92,2.32,16.13l8.14,11.99h-6.59l-7.53-11.1c-.29-.4-.45-.89-.45-1.33,0-1.17.86-2.17,1.95-2.37,3.46-.68,5.21-3.06,5.21-5.11,0-1.89-1.18-3.5-3.46-3.5h-5.41v21.2c0,1.22-.99,2.21-2.23,2.21h-3.22v-25.91h0Z" fill="#fff"></path>
      <path d="M454.75,49.84h-10.27v6.99h12.66v2.5c0,1.22-.98,2.2-2.2,2.2h-15.85v-25.89c0-1.22.98-2.2,2.2-2.2h13.64c1.22,0,2.2.98,2.2,2.2v2.5h-12.65v6.99h10.69v4.7h-.42s0,0,0,0Z" fill="#fff"></path>
      <path d="M25.29,71h48.39c4.76,0,8.81-3.49,9.49-8.19l5.9-40.44-63.78,48.63Z" fill="#fff"></path>
      <path d="M40.68,22.37c-4.76,0-8.81,3.49-9.49,8.19l-5.9,40.44,60.53-46.15,3-2.12.25-.36h-48.39Z" fill="#fff"></path>
      <path d="M34.33,57.29s-3.49-13.41,6.71-24.81c7.72-9.08,22.97-5.52,28.16-5.27,5.2.26,8.7.48,11.74-.23,3.04-.71,5.82-2.76,8.12-4.62,0,0-5.89,12.8-12.29,22.07-6.4,9.28-12.11,17.43-22.47,18.93-8.81,1.17-15.44-2.41-15.44-2.41,0,0-5.61,4.77-10.11,10.04h-3.47s13.41-13.32,17.15-16.83c3.75-3.51,11.82-11.54,23.88-18.61,0,0-15.73,4.95-31.98,21.74" fill="#1b6db4"></path>
    </g>
  </g>
</svg>
