<svg xmlns="http://www.w3.org/2000/svg" id="b" data-name="Calque 2" viewBox="0 0 345.149 43.066"><g id="c" data-name="Calque 1"><g><path d="M115.02,16.566c0,4.139-4.124,6.54-8.41,6.54-4.028,0-8.186-2.149-9.047-6.919h4.54c.384,2.464,2.653,3.696,4.731,3.696s3.868-1.108,3.868-3.32c0-4.233-12.406-1.548-12.406-9.354,0-4.076,3.836-6.414,7.802-6.414,3.74,0,7.546,2.054,8.41,6.701h-4.572c-.352-2.278-2.302-3.447-4.124-3.447-1.661,0-3.197.98-3.197,2.97,0,4.521,12.405,2.085,12.405,9.544v.003Z" fill="#fff"></path><path d="M129.567.609c5.66,0,11.285,3.791,11.285,11.345s-5.628,11.31-11.285,11.31-11.285-3.791-11.285-11.31,5.657-11.345,11.285-11.345M129.567,19.346c3.486,0,6.97-2.464,6.97-7.393s-3.486-7.396-6.97-7.396-6.97,2.465-6.97,7.396,3.486,7.393,6.97,7.393" fill="#fff"></path><path d="M182.448,22.983h-4.636l-1.854-4.613h-8.154l-1.853,4.613h-4.636l8.919-21.3c.288-.727.96-1.106,1.63-1.106s1.374.379,1.662,1.106l8.919,21.3h.003ZM174.486,14.671l-2.59-6.54-2.622,6.54h5.212Z" fill="#fff"></path><path d="M232.291,16.566c0,4.139-4.124,6.54-8.41,6.54-4.028,0-8.186-2.149-9.047-6.919h4.54c.384,2.464,2.653,3.696,4.731,3.696s3.868-1.108,3.868-3.32c0-4.233-12.406-1.548-12.406-9.354,0-4.076,3.836-6.414,7.802-6.414,3.74,0,7.546,2.054,8.41,6.701h-4.572c-.352-2.278-2.302-3.447-4.124-3.447-1.661,0-3.197.98-3.197,2.97,0,4.521,12.405,2.085,12.405,9.544v.003Z" fill="#fff"></path><path d="M61.447,22.982h-2.346V2.625c0-.956.785-1.732,1.755-1.732h2.531v20.355c0,.96-.785,1.735-1.755,1.735h-.185Z" fill="#fff"></path><path d="M91.566,22.982h-2.346V2.625c0-.956.785-1.734,1.755-1.734h2.531v20.354c0,.96-.785,1.735-1.755,1.735h-.182l-.003.003Z" fill="#fff"></path><path d="M208.836,22.982h-2.346V2.625c0-.956.785-1.734,1.755-1.734h2.531v20.354c0,.96-.785,1.735-1.756,1.735h-.182l-.002.003Z" fill="#fff"></path><path d="M68.5,2.625c0-.956.786-1.735,1.755-1.735h7.103c8.41.032,8.919,10.934,1.822,12.672l6.393,9.418h-5.18l-5.916-8.72c-.224-.316-.352-.698-.352-1.045,0-.917.672-1.706,1.534-1.864,2.718-.538,4.092-2.402,4.092-4.013,0-1.482-.928-2.748-2.718-2.748h-4.252l.005,16.658c0,.959-.785,1.735-1.755,1.735h-2.533V2.625h.002Z" fill="#fff"></path><path d="M185.84,2.625c0-.956.786-1.735,1.755-1.735h7.103c8.41.032,8.919,10.934,1.822,12.672l6.393,9.418h-5.18l-5.916-8.72c-.224-.316-.352-.698-.352-1.045,0-.917.672-1.706,1.534-1.864,2.718-.538,4.092-2.402,4.092-4.013,0-1.482-.928-2.748-2.718-2.748h-4.252l.005,16.658c0,.959-.785,1.735-1.755,1.735h-2.533V2.625h.002Z" fill="#fff"></path><path d="M145.039,22.982V2.625c0-.956.785-1.734,1.755-1.734h2.531v18.39h10.424v1.964c0,.96-.786,1.735-1.756,1.735h-12.952l-.002.003Z" fill="#fff"></path><path d="M263.828,16.282c0,4.227-4.212,6.679-8.589,6.679-4.113,0-8.36-2.194-9.24-7.066h4.637c.392,2.516,2.71,3.775,4.832,3.775s3.95-1.132,3.95-3.391c0-4.324-12.669-1.581-12.669-9.554,0-4.162,3.917-6.549,7.967-6.549,3.819,0,7.706,2.097,8.589,6.843h-4.669c-.359-2.326-2.351-3.52-4.211-3.52-1.698,0-3.266,1-3.266,3.033,0,4.617,12.669,2.129,12.669,9.747v.003Z" fill="#fff"></path><path d="M279.479,4.074h-3.611v16.995c0,.974-.789,1.763-1.76,1.763h-2.524V4.08h-6.028v-2.012c0-.974.788-1.763,1.764-1.763h14.576v2.006c0,.974-.788,1.763-1.763,1.763h-.654Z" fill="#fff"></path><path d="M295.149,0c5.78,0,11.525,3.871,11.525,11.586s-5.747,11.551-11.525,11.551-11.525-3.872-11.525-11.551,5.777-11.586,11.525-11.586M295.149,19.136c3.56,0,7.118-2.517,7.118-7.55s-3.56-7.553-7.118-7.553-7.118,2.516-7.118,7.553,3.56,7.55,7.118,7.55" fill="#fff"></path><path d="M309.057,2.075c0-.977.802-1.771,1.793-1.771h7.253c8.589.032,9.109,11.166,1.861,12.941l6.529,9.618h-5.29l-6.041-8.905c-.229-.323-.36-.713-.36-1.068,0-.936.686-1.742,1.566-1.904,2.776-.548,4.179-2.452,4.179-4.098,0-1.513-.948-2.807-2.776-2.807h-4.342l.005,17.013c0,.98-.802,1.772-1.792,1.772h-2.587V2.075h.002Z" fill="#fff"></path><path d="M343.236,13.456h-8.244v5.61h10.158v2.007c0,.976-.789,1.764-1.765,1.764h-12.717V2.063c0-.975.789-1.763,1.765-1.763h10.948c.976,0,1.765.788,1.765,1.763v2.007h-10.154v5.611h8.581v3.77h-.332l-.004.005h0Z" fill="#fff"></path><g><path d="M14.424,27.292c3.151-2.952,9.941-9.705,20.085-15.656,0,0-13.234,4.16-26.9,18.285,0,0-2.937-11.275,5.644-20.867,6.489-7.641,19.315-4.645,23.687-4.428,4.374.216,7.32.405,9.877-.193,2.556-.597,4.899-2.323,6.83-3.883h0,0s0,0,0,0H12.949c-4.007,0-7.406,2.935-7.986,6.892L0,41.451c.006-.006,11.276-11.206,14.424-14.159Z" fill="#fff"></path><path d="M53.647.55s-4.958,10.763-10.34,18.564c-5.383,7.802-10.187,14.663-18.899,15.918-7.409.985-12.985-2.03-12.985-2.03,0,0-4.721,4.008-8.504,8.449h37.779c4.006,0,7.406-2.935,7.985-6.892L53.646.552h0s0-.001,0-.001Z" fill="#fff"></path><polygon points="0 41.451 0 41.451 0 41.451 0 41.451" fill="#fff"></polygon></g><path d="M312.397,35.762c2.768-1.342,2.259-5.867-1.646-5.882h-3.564c-.487,0-.881.374-.881.839v10.216c0,.315.3.71.881.71h3.564c3.905-.016,4.414-4.541,1.646-5.883M310.591,39.852h-2.133l-.011.005c.004-.035.011-.07.011-.106v-8.079h2.133c.897,0,1.364.613,1.364,1.333,0,.783-.69,1.685-2.054,1.946-.056.011-.138.036-.223.066-.269.095-.472.327-.52.609-.001.004-.002.008-.002.013-.014.082-.014.164,0,.246,0,.005.001.009.002.013.048.282.251.515.52.61.085.029.167.055.223.065,1.364.261,2.054,1.163,2.054,1.946,0,.72-.467,1.333-1.364,1.333" fill="#fff"></path><path d="M184.802,33.587c.155.288.456.478.804.478h.518c.507,0,.95-.447.917-.925,0,0-.006-.166-.177-.503-1.09-2.058-3.049-3.02-4.993-3.02-2.903,0-5.79,2.144-5.79,6.072s2.955,6.047,5.858,6.047,5.489-1.954,5.489-6.152v-.288h-5.493c-.508,0-.919.417-.919.926v1.053h4.111c-.421,1.587-1.713,2.335-3.054,2.335-1.813,0-3.725-1.367-3.725-3.921s1.661-3.958,3.389-3.958c1.155,0,2.335.606,3.064,1.856h.001Z" fill="#fff"></path><path d="M142.572,36.724h-4.611v2.886h5.681v1.029c0,.496-.441.907-.986.907h-7.112v-10.667c0-.503.441-.907.986-.907h6.123c.545,0,.986.404.986.907v1.029h-5.681v2.88h4.799v1.936h-.186.001Z" fill="#fff"></path><path d="M163.179,36.724h-4.611v2.886h5.681v1.029c0,.496-.441.907-.986.907h-7.112v-10.667c0-.503.441-.907.986-.907h6.123c.545,0,.986.404.986.907v1.029h-5.681v2.88h4.799v1.936h-.186.001Z" fill="#fff"></path><path d="M147.142,29.972h-.894c-.507,0-.917.404-.917.907v10.667h1.328c.505,0,.915-.41.915-.907v-6.298l5.201,7.205h.896c.505,0,.915-.41.915-.907v-10.667h-1.327c-.506,0-.916.404-.916.907v6.292l-5.2-7.199h0Z" fill="#fff"></path><path d="M165.938,30.879c0-.503.425-.907.952-.907h3.849c4.558.019,4.834,5.729.987,6.636l3.468,4.932h-2.808l-3.205-4.565c-.121-.165-.191-.367-.191-.545,0-.484.365-.895.83-.98,1.474-.282,2.219-1.257,2.219-2.102,0-.778-.504-1.44-1.473-1.44h-2.304v8.725c0,.503-.423.913-.949.913h-1.375v-10.667Z" fill="#fff"></path><path d="M317.388,41.546h-1.266v-10.667c0-.503.424-.907.947-.907h1.367v10.661c0,.503-.424.913-.948.913h-.1Z" fill="#fff"></path><path d="M98.34,29.908h-5.086v11.574h1.441c.551,0,.995-.41.995-.907v-2.953h3.069v-.018c5.106-.448,5.031-7.696-.419-7.696M98.27,35.686h-2.58v-3.842h2.488c2.469,0,2.454,3.842.092,3.842" fill="#fff"></path><path d="M279.721,30.401l1.799-2.095c.3-.348.867-.215.98.23l.138.542c.045.179.001.369-.12.509l-2.328,2.708c-.066.08-.4-.839-.575-1.338-.066-.191-.026-.402.106-.556" fill="#fff"></path><path d="M64.765,30.401l1.799-2.095c.3-.348.867-.215.98.23l.138.542c.045.179.001.369-.12.509l-2.328,2.708c-.066.08-.4-.839-.575-1.338-.066-.191-.026-.402.106-.556" fill="#fff"></path><path d="M113.044,30.789c0-.502.425-.907.952-.907h3.849c4.558.019,4.834,5.729.987,6.636l3.468,4.932h-2.808l-3.205-4.565c-.121-.165-.191-.367-.191-.545,0-.484.365-.895.83-.98,1.474-.282,2.219-1.256,2.219-2.102,0-.778-.504-1.44-1.473-1.44h-2.304v8.725c0,.503-.423.913-.949.913h-1.375v-10.667Z" fill="#fff"></path><path d="M128.836,31.813h-1.79v8.731c0,.496-.391.907-.872.907h-1.251v-9.638h-2.988v-1.029c0-.503.391-.907.874-.907h7.225v1.029c0,.503-.39.907-.874.907h-.324Z" fill="#fff"></path><path d="M305.57,41.586h-2.311l-.925-2.402h-4.063l-.925,2.402h-2.311l4.449-11.078c.143-.38.477-.576.811-.576s.686.196.828.576l4.444,11.078h.003ZM301.604,37.26l-1.292-3.4-1.305,3.4h2.597Z" fill="#fff"></path><path d="M337.541,41.586h-2.311l-.925-2.402h-4.063l-.925,2.402h-2.311l4.449-11.078c.143-.38.477-.576.812-.576s.685.196.827.576l4.444,11.078h.003ZM333.574,37.26l-1.292-3.4-1.305,3.4h2.597Z" fill="#fff"></path><path d="M208.3,41.454h-1.266v-10.667c0-.503.424-.907.948-.907h1.366v10.661c0,.503-.424.913-.948.913h-.1Z" fill="#fff"></path><polygon points="91.739 41.615 83.706 30.047 80.885 30.05 88.915 41.618 91.739 41.615" fill="#fff"></polygon><polygon points="81.309 41.615 89.341 30.047 92.163 30.05 84.132 41.618 81.309 41.615" fill="#fff"></polygon><path d="M292.821,29.972c-.524,0-.948.404-.948.907v3.909h-3.528s-.037-.067-.1-.183v-4.633h-1.367c-.524,0-.948.404-.948.907v10.667h1.367c.523,0,.948-.41.948-.913v-3.702l.103-.207h3.525v4.822h1.366c.524,0,.948-.41.948-.913v-10.661h-1.366Z" fill="#fff"></path><path d="M204.614,31.908h-1.79v8.731c0,.496-.391.907-.872.907h-1.251v-9.638h-2.987v-1.029c0-.503.39-.907.874-.907h7.224v1.029c0,.502-.39.907-.874.907h-.324Z" fill="#fff"></path><path d="M327.058,31.908h-1.79v8.731c0,.496-.391.907-.872.907h-1.251v-9.638h-2.987v-1.029c0-.503.39-.907.874-.907h7.224v1.029c0,.502-.39.907-.874.907h-.324Z" fill="#fff"></path><path d="M343.951,31.908h-1.79v8.731c0,.496-.391.907-.872.907h-1.251v-9.638h-2.987v-1.029c0-.503.39-.907.874-.907h7.224v1.029c0,.502-.39.907-.874.907h-.324Z" fill="#fff"></path><path d="M274.34,41.463v-10.667c0-.502.433-.907.967-.907h1.393v9.632h5.739v1.029c0,.503-.432.907-.967.907h-7.13l-.002.006Z" fill="#fff"></path><path d="M59.6,41.482v-10.667c0-.503.433-.907.967-.907h1.393v9.632h5.739v1.029c0,.503-.432.907-.967.907h-7.13l-.002.006Z" fill="#fff"></path><path d="M195.631,36.724h-4.611v2.886h5.681v1.029c0,.496-.441.907-.986.907h-7.112v-10.667c0-.503.44-.907.986-.907h6.122c.546,0,.987.404.987.907v1.029h-5.681v2.88h4.799v1.936h-.186.001Z" fill="#fff"></path><path d="M78.912,36.66h-4.611v2.886h5.681v1.029c0,.497-.441.907-.986.907h-7.112v-10.667c0-.503.44-.907.986-.907h6.122c.546,0,.987.404.987.907v1.029h-5.681v2.88h4.799v1.936h-.186.001Z" fill="#fff"></path><path d="M110.632,36.629h-4.611v2.886h5.681v1.029c0,.496-.441.907-.986.907h-7.112v-10.667c0-.503.44-.907.986-.907h6.122c.546,0,.987.404.987.907v1.029h-5.681v2.88h4.799v1.936h-.186.001Z" fill="#fff"></path><path d="M266.928,36.632h-4.611v2.886h5.681v1.029c0,.496-.441.907-.986.907h-7.112v-10.667c0-.503.44-.907.986-.907h6.122c.546,0,.987.404.987.907v1.029h-5.681v2.88h4.799v1.936h-.186.001Z" fill="#fff"></path><path d="M242.478,36.632h-4.611v2.886h5.681v1.029c0,.496-.441.907-.986.907h-7.112v-10.667c0-.503.44-.907.986-.907h6.122c.546,0,.987.404.987.907v1.029h-5.681v2.88h4.799v1.936h-.186.001Z" fill="#fff"></path><path d="M253.515,29.88c6.351,0,6.418,11.047.385,11.574v.018h-5.077v-9.141c0-1.354,1.097-2.451,2.451-2.451h2.241ZM253.448,39.53c3.486,0,3.519-7.708-.084-7.708h-2.296v7.708h2.38Z" fill="#fff"></path><path d="M221.728,39.45c.858-1.038,1.374-2.368,1.374-3.82,0-3.313-2.685-6.014-5.999-6.014s-5.999,2.701-5.999,6.014,2.686,5.997,5.999,5.997c1.144,0,2.212-.32,3.122-.875l1.218,1.377.004-.003.555.627c.34.384.927.418,1.312.079l.427-.379.365-.322-2.378-2.681ZM213.397,35.63c0-2.14,1.667-3.874,3.706-3.874s3.705,1.751,3.705,3.874-1.665,3.857-3.705,3.857-3.706-1.717-3.706-3.857" fill="#fff"></path><path d="M225.478,29.972c.524,0,.948.424.948.949v6.889c0,1.594,1.249,2.41,2.498,2.41s2.462-.799,2.462-2.41v-6.889c0-.525.422-.949.947-.949h1.36v7.854c0,2.928-2.324,4.334-4.682,4.334s-4.906-1.491-4.906-4.352v-7.836h1.375-.002Z" fill="#fff"></path></g></g></svg>